# xmcd
#
# Track frame offsets:
# 183
# 28733
# 52603
# 72845
# 101028
# 137843
# 166250
# 189505
# 210783
# 230660
# 246668
# 267290
# 282833
#
# Disc length: 3909 seconds
#
#
# Revision: 0
# Processed by: cddbd v1.4PL0 Copyright (c) Steve Scherf et al.
# Submitted via: FreeRIP 2.30 
#
DISCID=b70f430d
DTITLE=Howlin' Wolf and the Wolf Gang - Evil: Live at Joe's Place
DYEAR=1973
DGENRE=Blues
TTITLE0=Ode To Billy Joe
TTITLE1=Stormy Monday
TTITLE2=Call My Job
TTITLE3=Little Red Rooster
TTITLE4=Goin' Down Slow
TTITLE5=Evil
TTITLE6=Blind Love
TTITLE7=Break Song
TTITLE8=Dust My Broom
TTITLE9=What's The Use
TTITLE10=Stoop Down Baby
TTITLE11=Harmony of Love
TTITLE12=Workout
EXTD=
EXTT0=
EXTT1=
EXTT2=
EXTT3=
EXTT4=
EXTT5=
EXTT6=
EXTT7=
EXTT8=
EXTT9=
EXTT10=
EXTT11=
EXTT12=
PLAYORDER=
